<?xml version="1.0" encoding="UTF-8" standalone="no"?>
<!-- Created with Inkscape (http://www.inkscape.org/) -->

<svg
   width="100mm"
   height="100mm"
   viewBox="0 0 100 100"
   version="1.1"
   id="svg5"
   inkscape:version="1.2.1 (9c6d41e410, 2022-07-14)"
   sodipodi:docname="bricks.svg"
   xmlns:inkscape="http://www.inkscape.org/namespaces/inkscape"
   xmlns:sodipodi="http://sodipodi.sourceforge.net/DTD/sodipodi-0.dtd"
   xmlns="http://www.w3.org/2000/svg"
   xmlns:svg="http://www.w3.org/2000/svg">
  <sodipodi:namedview
     id="namedview7"
     pagecolor="#505050"
     bordercolor="#eeeeee"
     borderopacity="1"
     inkscape:showpageshadow="0"
     inkscape:pageopacity="0"
     inkscape:pagecheckerboard="0"
     inkscape:deskcolor="#505050"
     inkscape:document-units="mm"
     showgrid="false"
     inkscape:zoom="1.5625561"
     inkscape:cx="118.71574"
     inkscape:cy="177.27363"
     inkscape:window-width="1920"
     inkscape:window-height="1057"
     inkscape:window-x="-8"
     inkscape:window-y="-8"
     inkscape:window-maximized="1"
     inkscape:current-layer="layer1" />
  <defs
     id="defs2" />
  <g
     inkscape:label="Layer 1"
     inkscape:groupmode="layer"
     id="layer1">
    <path
       id="rect544"
       style="fill:#c0c0c0;stroke-width:2.5;stroke-linecap:round;stroke-miterlimit:100;paint-order:markers fill stroke"
       d="m 9.9998576,5.0001628 c -0.6924979,0 -1.3511875,0.139392 -1.9497518,0.3917073 C 6.8529773,5.8965008 5.8965008,6.8529773 5.3918701,8.0501058 5.1395548,8.6486701 5.0001628,9.3073597 5.0001628,9.9998576 V 50 54.999695 90.000142 c 0,0.692498 0.139392,1.351188 0.3917073,1.949752 0.5046307,1.197129 1.4611072,2.153605 2.6582357,2.658236 0.2992822,0.126157 0.6134124,0.224043 0.9394776,0.290421 0.3260651,0.06638 0.6640253,0.101286 1.0102742,0.101286 H 50 90.000142 c 0.381637,0 0.751227,-0.04585 1.107943,-0.12609 0.290704,-0.06536 0.572985,-0.152299 0.841809,-0.265617 1.197129,-0.504631 2.153605,-1.461107 2.658236,-2.658236 0.113318,-0.268824 0.200258,-0.551105 0.265617,-0.841809 0.04384,-0.194896 0.07977,-0.392379 0.100252,-0.595313 0.01701,-0.168491 0.02584,-0.339505 0.02584,-0.51263 V 54.999695 50 A 45,45 0 0 0 50,5.0001628 h -9.999907 z" />
    <rect
       style="fill:#ffffff;stroke-width:2.53859;stroke-linecap:round;stroke-miterlimit:100;paint-order:markers fill stroke"
       id="rect231"
       width="60"
       height="15"
       x="10"
       y="17.5"
       rx="5"
       ry="5" />
    <rect
       style="fill:#ffffff;stroke-width:2.3174;stroke-linecap:round;stroke-miterlimit:100;paint-order:markers fill stroke"
       id="rect231-0"
       width="50"
       height="15"
       x="40"
       y="42.5"
       rx="4.1666665"
       ry="5" />
    <rect
       style="fill:#ffffff;stroke-width:2.19848;stroke-linecap:round;stroke-miterlimit:100;paint-order:markers fill stroke"
       id="rect231-0-2"
       width="45"
       height="15"
       x="10"
       y="67.5"
       rx="3.7499998"
       ry="5" />
    <rect
       style="fill:#ffffff;stroke-width:2.5;stroke-linecap:round;stroke-miterlimit:100;paint-order:markers fill stroke"
       id="rect473"
       width="25"
       height="15"
       x="10"
       y="42.5"
       rx="5"
       ry="5" />
    <rect
       style="fill:#ffffff;stroke-width:2.73862;stroke-linecap:round;stroke-miterlimit:100;paint-order:markers fill stroke"
       id="rect473-6"
       width="30"
       height="15"
       x="60"
       y="67.5"
       rx="6"
       ry="5" />
  </g>
</svg>
