<?xml version="1.0" encoding="UTF-8" standalone="no"?>
<!-- Created with Inkscape (http://www.inkscape.org/) -->

<svg
   width="100mm"
   height="100mm"
   viewBox="0 0 100 100"
   version="1.1"
   id="svg5"
   inkscape:version="1.2.1 (9c6d41e410, 2022-07-14)"
   sodipodi:docname="droplet.svg"
   xmlns:inkscape="http://www.inkscape.org/namespaces/inkscape"
   xmlns:sodipodi="http://sodipodi.sourceforge.net/DTD/sodipodi-0.dtd"
   xmlns="http://www.w3.org/2000/svg"
   xmlns:svg="http://www.w3.org/2000/svg">
  <sodipodi:namedview
     id="namedview7"
     pagecolor="#505050"
     bordercolor="#eeeeee"
     borderopacity="1"
     inkscape:showpageshadow="0"
     inkscape:pageopacity="0"
     inkscape:pagecheckerboard="0"
     inkscape:deskcolor="#505050"
     inkscape:document-units="mm"
     showgrid="false"
     inkscape:zoom="1.5625561"
     inkscape:cx="142.39489"
     inkscape:cy="180.47352"
     inkscape:window-width="1920"
     inkscape:window-height="1057"
     inkscape:window-x="-8"
     inkscape:window-y="-8"
     inkscape:window-maximized="1"
     inkscape:current-layer="layer1" />
  <defs
     id="defs2" />
  <g
     inkscape:label="Layer 1"
     inkscape:groupmode="layer"
     id="layer1">
    <circle
       style="fill:#c0c0c0;stroke-width:2.21389;stroke-linecap:round;stroke-miterlimit:100;paint-order:markers fill stroke"
       id="path494"
       cx="-50"
       cy="-61.912201"
       r="27.5"
       transform="scale(-1)" />
    <path
       id="path531"
       style="display:inline;fill:#ffffff;stroke-width:3.19961;stroke-linecap:round;stroke-miterlimit:100;paint-order:markers fill stroke"
       d="M 50,95 A 32.500064,31.499969 0 0 0 82.5,63.500094 C 82.5,32.000186 50,5 50,5 50,5 17.731682,32.000186 17.5,63.500094 A 32.500064,31.499969 0 0 0 50,95 Z m 0,-8.999907 A 23.214331,22.5 0 0 1 26.785646,63.500094 23.214331,22.5 0 0 1 50,41.000094 a 23.214331,22.5 0 0 1 23.214355,22.5 A 23.214331,22.5 0 0 1 50,86.000093 Z" />
  </g>
</svg>
