<?xml version="1.0" encoding="UTF-8" standalone="no"?>
<!-- Created with Inkscape (http://www.inkscape.org/) -->

<svg
   width="100mm"
   height="100mm"
   viewBox="0 0 100 100"
   version="1.1"
   id="svg5"
   inkscape:version="1.2.1 (9c6d41e410, 2022-07-14)"
   sodipodi:docname="gps.svg"
   xmlns:inkscape="http://www.inkscape.org/namespaces/inkscape"
   xmlns:sodipodi="http://sodipodi.sourceforge.net/DTD/sodipodi-0.dtd"
   xmlns="http://www.w3.org/2000/svg"
   xmlns:svg="http://www.w3.org/2000/svg">
  <sodipodi:namedview
     id="namedview7"
     pagecolor="#505050"
     bordercolor="#eeeeee"
     borderopacity="1"
     inkscape:showpageshadow="0"
     inkscape:pageopacity="0"
     inkscape:pagecheckerboard="0"
     inkscape:deskcolor="#505050"
     inkscape:document-units="mm"
     showgrid="false"
     inkscape:zoom="1.5625561"
     inkscape:cx="206.39259"
     inkscape:cy="238.71143"
     inkscape:window-width="1920"
     inkscape:window-height="1057"
     inkscape:window-x="-8"
     inkscape:window-y="-8"
     inkscape:window-maximized="1"
     inkscape:current-layer="layer1" />
  <defs
     id="defs2" />
  <g
     inkscape:label="Layer 1"
     inkscape:groupmode="layer"
     id="layer1">
    <ellipse
       style="fill:#c0c0c0;stroke-width:1.93275;stroke-linecap:round;stroke-miterlimit:100;paint-order:markers fill stroke"
       id="path1308"
       cx="50"
       cy="90"
       rx="30"
       ry="10" />
    <path
       id="path531"
       style="display:inline;fill:#ffffff;stroke-width:3.19961;stroke-linecap:round;stroke-miterlimit:100;paint-order:markers fill stroke"
       d="M 50,5 A 32.500064,31.499969 0 0 0 17.5,36.499906 C 17.5,67.999814 50,95 50,95 50,95 82.268318,67.999814 82.5,36.499906 A 32.500064,31.499969 0 0 0 50,5 Z m 0,8.999907 A 23.214331,22.5 0 0 1 73.214354,36.499906 23.214331,22.5 0 0 1 50,58.999906 23.214331,22.5 0 0 1 26.785645,36.499906 23.214331,22.5 0 0 1 50,13.999907 Z" />
  </g>
</svg>
