<?xml version="1.0" encoding="UTF-8" standalone="no"?>
<!-- Created with Inkscape (http://www.inkscape.org/) -->

<svg
   width="100mm"
   height="100mm"
   viewBox="0 0 100 100"
   version="1.1"
   id="svg5"
   inkscape:version="1.2.1 (9c6d41e410, 2022-07-14)"
   sodipodi:docname="Reload.svg"
   xmlns:inkscape="http://www.inkscape.org/namespaces/inkscape"
   xmlns:sodipodi="http://sodipodi.sourceforge.net/DTD/sodipodi-0.dtd"
   xmlns="http://www.w3.org/2000/svg"
   xmlns:svg="http://www.w3.org/2000/svg">
  <sodipodi:namedview
     id="namedview7"
     pagecolor="#505050"
     bordercolor="#eeeeee"
     borderopacity="1"
     inkscape:showpageshadow="0"
     inkscape:pageopacity="0"
     inkscape:pagecheckerboard="0"
     inkscape:deskcolor="#505050"
     inkscape:document-units="mm"
     showgrid="false"
     inkscape:zoom="1.5625561"
     inkscape:cx="182.07346"
     inkscape:cy="175.99368"
     inkscape:window-width="1920"
     inkscape:window-height="1057"
     inkscape:window-x="-8"
     inkscape:window-y="-8"
     inkscape:window-maximized="1"
     inkscape:current-layer="layer1" />
  <defs
     id="defs2" />
  <g
     inkscape:label="Layer 1"
     inkscape:groupmode="layer"
     id="layer1">
    <path
       id="path231"
       style="fill:#ffffff;stroke-width:2.26377;stroke-linecap:round;stroke-miterlimit:100;paint-order:markers fill stroke"
       d="M 49.999999,5 A 44.999955,45.552422 0 0 0 5,50.552467 44.999955,45.552422 0 0 0 18.202437,82.74041 l 9.54778,-9.665 A 31.499968,31.886696 0 0 1 18.500093,50.552467 31.499968,31.886696 0 0 1 49.999999,18.665834 31.499968,31.886696 0 0 1 81.499905,50.552467 31.499968,31.886696 0 0 1 72.249781,73.07541 l 9.567314,9.684773 A 44.999955,45.552422 0 0 0 95,50.552467 44.999955,45.552422 0 0 0 49.999999,5 Z" />
    <path
       id="path344"
       style="fill:#c0c0c0;stroke-width:2.26377;stroke-linecap:round;stroke-miterlimit:100;paint-order:markers fill stroke"
       d="M 60.15841,60.835592 V 95 h 33.750056 z"
       sodipodi:nodetypes="cccc" />
  </g>
</svg>
