<?xml version="1.0" encoding="UTF-8" standalone="no"?>
<!-- Created with Inkscape (http://www.inkscape.org/) -->

<svg
   width="1024mm"
   height="600mm"
   viewBox="0 0 1024 600"
   version="1.1"
   id="svg5"
   inkscape:version="1.2.1 (9c6d41e410, 2022-07-14)"
   sodipodi:docname="Splashscreen.svg"
   xml:space="preserve"
   inkscape:export-filename="Splashscreen.png"
   inkscape:export-xdpi="25.4"
   inkscape:export-ydpi="25.4"
   xmlns:inkscape="http://www.inkscape.org/namespaces/inkscape"
   xmlns:sodipodi="http://sodipodi.sourceforge.net/DTD/sodipodi-0.dtd"
   xmlns="http://www.w3.org/2000/svg"
   xmlns:svg="http://www.w3.org/2000/svg"><sodipodi:namedview
     id="namedview7"
     pagecolor="#505050"
     bordercolor="#eeeeee"
     borderopacity="1"
     inkscape:showpageshadow="0"
     inkscape:pageopacity="0"
     inkscape:pagecheckerboard="0"
     inkscape:deskcolor="#505050"
     inkscape:document-units="mm"
     showgrid="false"
     inkscape:zoom="0.19531951"
     inkscape:cx="1512.9057"
     inkscape:cy="1489.8665"
     inkscape:window-width="1920"
     inkscape:window-height="1057"
     inkscape:window-x="-8"
     inkscape:window-y="-8"
     inkscape:window-maximized="1"
     inkscape:current-layer="layer2" /><defs
     id="defs2"><rect
       x="0"
       y="0"
       width="7280.4531"
       height="4348.8379"
       id="rect943" /><rect
       x="0"
       y="0"
       width="7280.4531"
       height="4348.8379"
       id="rect943-1" /></defs><g
     inkscape:label="Background"
     inkscape:groupmode="layer"
     id="layer1"><rect
       style="fill:#ffffff;stroke-width:1.36083;stroke-linecap:round;stroke-miterlimit:100;paint-order:markers fill stroke"
       id="rect231"
       width="1024"
       height="600"
       x="0"
       y="0"
       rx="2.6666667"
       ry="2.7777777"
       inkscape:label="Color" /></g><g
     inkscape:groupmode="layer"
     id="layer2"
     inkscape:label="Items"><g
       aria-label="Work
Nodes"
       transform="matrix(0.15572107,0,0,0.15743073,180.80006,-27.025845)"
       id="text941"
       style="font-size:1440px;font-family:Manrope;-inkscape-font-specification:Manrope;text-align:justify;white-space:pre;shape-inside:url(#rect943);display:inline;stroke-width:9.44882;stroke-linecap:round;stroke-miterlimit:100;paint-order:markers fill stroke"
       inkscape:label="Worknodes"><path
         d="M 323.28,1303.7482 23.76,266.94817 h 110.16 l 242.64,856.08003 241.2,-855.36003 110.88,-0.72 242.64,856.08003 241.2,-856.08003 h 110.88 L 1024.56,1303.7482 H 918 L 673.2,453.42817 429.84,1303.7482 Z"
         id="path268" /><path
         d="m 1686.2396,1325.3482 q -115.92,0 -198,-52.56 -82.08,-52.56 -126,-145.44 -43.92,-92.88 -43.92,-213.12003 0,-122.4 44.64,-214.56 44.64,-92.16 126.72,-143.28 82.8,-51.84 196.56,-51.84 116.64,0 198.72,52.56 82.8,51.84 126,144.72 43.92,92.16 43.92,212.4 0,122.40003 -43.92,215.28003 -43.92,92.16 -126.72,144 -82.8,51.84 -198,51.84 z m 0,-101.52 q 129.6,0 192.96,-85.68 63.36,-86.4 63.36,-223.92003 0,-141.12 -64.08,-224.64 -63.36,-83.52 -192.24,-83.52 -87.12,0 -144,39.6 -56.16,38.88 -84.24,108.72 -27.36,69.12 -27.36,159.84 0,140.40003 64.8,225.36003 64.8,84.24 190.8,84.24 z"
         id="path270" /><path
         d="M 2213.2785,1303.7482 V 526.14817 h 95.04 v 187.2 l -18.72,-24.48 q 12.96,-34.56 33.84,-63.36 20.88,-29.52 45.36,-48.24 30.24,-26.64 70.56,-40.32 40.32,-14.4 81.36,-16.56 41.04,-2.88 74.88,5.76 v 99.36 q -42.48,-10.8 -92.88,-5.04 -50.4,5.76 -92.88,40.32 -38.88,30.24 -58.32,72.72 -19.44,41.76 -25.92,89.28 -6.48,46.8 -6.48,92.88 v 388.08003 z"
         id="path272" /><path
         d="m 2731.6791,1303.7482 0.72,-1036.80003 h 106.56 v 633.6 l 347.04,-374.4 h 141.12 l -364.32,388.8 411.84,388.80003 h -154.08 l -381.6,-374.40003 v 374.40003 z"
         id="path274" /><path
         d="m 100.8,3103.7482 v -1036.8 h 106.56 l 570.96,849.6 v -849.6 h 106.56 v 1036.8 H 778.32 l -570.96,-850.32 v 850.32 z"
         id="path276" /><path
         d="m 1411.1996,3125.3482 q -115.92,0 -198,-52.56 -82.08,-52.56 -126,-145.44 -43.92,-92.88 -43.92,-213.12 0,-122.4 44.64,-214.56 44.64,-92.16 126.72,-143.28 82.8,-51.84 196.56,-51.84 116.64,0 198.72,52.56 82.8,51.84 126,144.72 43.92,92.16 43.92,212.4 0,122.4 -43.92,215.28 -43.92,92.16 -126.72,144 -82.8,51.84 -198,51.84 z m 0,-101.52 q 129.6,0 192.96,-85.68 63.36,-86.4 63.36,-223.92 0,-141.12 -64.08,-224.64 -63.36,-83.52 -192.24,-83.52 -87.12,0 -144,39.6 -56.16,38.88 -84.24,108.72 -27.36,69.12 -27.36,159.84 0,140.4 64.8,225.36 64.8,84.24 190.8,84.24 z"
         id="path278" /><path
         d="m 2239.9187,3125.3482 q -108.72,0 -185.76,-54 -77.04,-54.72 -118.08,-147.6 -41.04,-92.88 -41.04,-209.52 0,-115.92 40.32,-208.8 41.04,-92.88 117.36,-146.88 76.32,-54 182.88,-54 109.44,0 184.32,53.28 74.88,53.28 113.04,146.16 38.88,92.16 38.88,210.24 0,115.92 -38.16,209.52 -38.16,92.88 -112.32,147.6 -74.16,54 -181.44,54 z m 10.8,-98.64 q 82.8,0 136.8,-40.32 54,-40.32 80.64,-110.88 26.64,-71.28 26.64,-161.28 0,-91.44 -26.64,-161.28 -26.64,-70.56 -80.64,-110.16 -53.28,-39.6 -134.64,-39.6 -83.52,0 -138.24,41.04 -54.72,41.04 -81.36,111.6 -25.92,70.56 -25.92,158.4 0,88.56 26.64,159.84 27.36,70.56 81.36,111.6 54,41.04 135.36,41.04 z m 244.08,77.04 v -585.36 h -11.52 v -451.44 h 106.56 v 1036.8 z"
         id="path280" /><path
         d="m 3120.4796,3125.3482 q -113.76,0 -197.28,-50.4 -82.8,-50.4 -128.88,-141.84 -46.08,-91.44 -46.08,-214.56 0,-127.44 45.36,-220.32 45.36,-92.88 127.44,-143.28 82.8,-50.4 195.12,-50.4 115.2,0 196.56,53.28 81.36,52.56 123.12,151.2 41.76,98.64 38.16,235.44 h -108 v -37.44 q -2.88,-151.2 -65.52,-228.24 -61.92,-77.04 -181.44,-77.04 -125.28,0 -192.24,81.36 -66.24,81.36 -66.24,231.84 0,146.88 66.24,228.24 66.96,80.64 189.36,80.64 83.52,0 145.44,-38.16 62.64,-38.88 98.64,-111.6 l 98.64,38.16 q -46.08,101.52 -136.08,157.68 -89.28,55.44 -202.32,55.44 z m -297.36,-380.88 v -88.56 h 594 v 88.56 z"
         id="path282" /><path
         d="m 3923.2788,3124.6282 q -136.8,0 -225.36,-59.04 -87.84,-59.04 -108,-164.16 l 108,-18 q 17.28,66.24 78.48,105.84 61.92,38.88 152.64,38.88 88.56,0 139.68,-36.72 51.12,-37.44 51.12,-101.52 0,-36 -16.56,-58.32 -15.84,-23.04 -65.52,-42.48 -49.68,-19.44 -148.32,-46.08 -105.84,-28.8 -165.6,-57.6 -59.76,-28.8 -84.96,-66.24 -25.2,-38.16 -25.2,-92.88 0,-66.24 37.44,-115.92 37.44,-50.4 103.68,-77.76 66.24,-28.08 154.08,-28.08 87.84,0 156.96,28.8 69.84,28.08 112.32,79.2 42.48,51.12 50.4,118.8 l -108,19.44 q -10.8,-68.4 -68.4,-108 -56.88,-40.32 -144.72,-41.76 -82.8,-2.16 -134.64,31.68 -51.84,33.12 -51.84,88.56 0,30.96 18.72,53.28 18.72,21.6 67.68,41.04 49.68,19.44 141.12,42.48 107.28,27.36 168.48,57.6 61.2,30.24 87.12,71.28 25.92,41.04 25.92,101.52 0,110.16 -82.08,173.52 -81.36,62.64 -224.64,62.64 z"
         id="path284" /></g><g
       aria-label="By Ozymandias Studio"
       transform="matrix(0.25792567,0,0,0.27065527,546.75014,536.6994)"
       id="text941-3"
       style="font-size:180px;font-family:Manrope;-inkscape-font-specification:Manrope;text-align:justify;white-space:pre;shape-inside:url(#rect943-1);display:inline;stroke-width:9.44882;stroke-linecap:round;stroke-miterlimit:100;paint-order:markers fill stroke"><path
         d="M 12.6,162.96852 V 33.368521 h 50.04 q 10.89,0 18.99,4.5 8.1,4.5 12.6,12.15 4.5,7.56 4.5,16.74 0,10.44 -5.58,18.63 -5.58,8.1 -14.94,11.25 l -0.18,-4.41 q 12.6,3.6 19.8,12.599999 7.2,9 7.2,21.78 0,11.25 -4.77,19.44 -4.77,8.1 -13.41,12.51 -8.64,4.41 -20.07,4.41 z m 13.32,-12.69 h 37.62 q 7.92,0 14.22,-2.79 6.3,-2.88 9.9,-8.1 3.69,-5.22 3.69,-12.6 0,-7.2 -3.33,-12.96 -3.33,-5.76 -9.09,-9.18 -5.67,-3.51 -12.96,-3.51 H 25.92 Z m 0,-61.649999 h 36.63 q 6.21,0 11.34,-2.79 5.13,-2.88 8.1,-7.83 3.06,-4.95 3.06,-11.43 0,-9.18 -6.39,-14.94 -6.3,-5.76 -16.11,-5.76 H 25.92 Z"
         id="path287" /><path
         d="m 136.80016,206.16852 18.81,-51.03 0.27,15.12 -42.57,-104.489999 h 14.04 l 34.92,87.389999 h -5.76 l 32.22,-87.389999 h 13.5 l -52.2,140.399999 z"
         id="path289" /><path
         d="m 306.36031,165.66852 q -19.35,0 -32.67,-8.55 -13.32,-8.64 -20.16,-23.85 -6.84,-15.21 -6.84,-35.099999 0,-19.89 6.84,-35.1 6.84,-15.21 20.16,-23.76 13.32,-8.64 32.67,-8.64 19.44,0 32.67,8.64 13.32,8.55 20.16,23.76 6.93,15.21 6.93,35.1 0,19.889999 -6.93,35.099999 -6.84,15.21 -20.16,23.85 -13.23,8.55 -32.67,8.55 z m 0,-12.69 q 15.21,0 25.38,-6.93 10.17,-6.93 15.21,-19.26 5.13,-12.42 5.13,-28.619999 0,-16.2 -5.13,-28.53 -5.04,-12.33 -15.21,-19.26 -10.17,-6.93 -25.38,-7.02 -15.21,0 -25.29,6.93 -10.08,6.93 -15.21,19.35 -5.04,12.33 -5.13,28.53 -0.09,16.199999 4.95,28.529999 5.13,12.24 15.3,19.26 10.17,6.93 25.38,7.02 z"
         id="path291" /><path
         d="m 375.1202,162.96852 v -2.79 l 62.73,-82.079999 h -58.05 v -12.33 h 79.83 v 3.06 l -62.64,81.809999 h 59.22 v 12.33 z"
         id="path293" /><path
         d="m 490.29041,206.16852 18.81,-51.03 0.27,15.12 -42.57,-104.489999 h 14.04 l 34.92,87.389999 h -5.76 l 32.22,-87.389999 h 13.5 l -52.2,140.399999 z"
         id="path295" /><path
         d="m 687.30046,162.96852 0.09,-63.809999 q 0,-11.25 -6.3,-17.64 -6.21,-6.48 -15.84,-6.48 -5.49,0 -10.71,2.52 -5.22,2.52 -8.64,8.1 -3.33,5.58 -3.33,14.579999 l -7.83,-2.249999 q -0.27,-10.44 4.05,-18.27 4.41,-7.83 12.06,-12.15 7.74,-4.41 17.46,-4.41 14.67,0 23.49,9.09 8.82,9 8.82,24.39 l -0.09,66.329999 z m -116.01,0 V 65.768521 h 11.88 v 23.94 h 1.44 v 73.259999 z m 58.14,0 0.09,-62.91 q 0,-11.609999 -6.21,-18.269999 -6.12,-6.75 -16.2,-6.75 -10.08,0 -16.29,6.93 -6.21,6.84 -6.21,18.269999 l -7.92,-4.319999 q 0,-9.36 4.41,-16.74 4.41,-7.47 12.06,-11.7 7.65,-4.32 17.37,-4.32 9.27,0 16.47,3.96 7.29,3.96 11.43,11.52 4.14,7.56 4.14,18.36 l -0.09,65.969999 z"
         id="path297" /><path
         d="m 751.83035,165.66852 q -10.98,0 -18.45,-3.96 -7.38,-3.96 -11.07,-10.53 -3.69,-6.57 -3.69,-14.31 0,-7.92 3.15,-13.5 3.24,-5.67 8.73,-9.27 5.58,-3.6 12.87,-5.49 7.38,-1.8 16.29,-3.15 9,-1.44 17.55,-2.43 8.64,-1.08 15.12,-2.07 l -4.68,2.88 q 0.27,-14.399999 -5.58,-21.329999 -5.85,-6.93 -20.34,-6.93 -9.99,0 -16.92,4.5 -6.84,4.5 -9.63,14.22 l -12.87,-3.78 q 3.33,-13.05 13.41,-20.25 10.08,-7.2 26.19,-7.2 13.32,0 22.59,5.04 9.36,4.95 13.23,14.4 1.8,4.23 2.34,9.45 0.54,5.22 0.54,10.619999 v 60.39 h -11.79 v -24.39 l 3.42,1.44 q -4.95,12.51 -15.39,19.08 -10.44,6.57 -25.02,6.57 z m 1.53,-11.43 q 9.27,0 16.2,-3.33 6.93,-3.33 11.16,-9.09 4.23,-5.85 5.49,-13.14 1.08,-4.68 1.17,-10.26 0.09,-5.67 0.09,-8.46 l 5.04,2.61 q -6.75,0.9 -14.67,1.8 -7.83,0.9 -15.48,2.07 -7.56,1.17 -13.68,2.79 -4.14,1.17 -8.01,3.33 -3.87,2.07 -6.39,5.58 -2.43,3.51 -2.43,8.73 0,4.23 2.07,8.19 2.16,3.96 6.84,6.57 4.77,2.61 12.6,2.61 z"
         id="path299" /><path
         d="m 894.2104,162.96852 v -49.59 q 0,-8.1 -1.53,-14.849999 -1.53,-6.84 -4.95,-11.88 -3.33,-5.13 -8.73,-7.92 -5.31,-2.79 -12.96,-2.79 -7.02,0 -12.42,2.43 -5.31,2.43 -9,7.02 -3.6,4.5 -5.49,10.98 -1.89,6.479999 -1.89,14.759999 l -9.36,-2.07 q 0,-14.939999 5.22,-25.109999 5.22,-10.17 14.4,-15.39 9.18,-5.22 21.06,-5.22 8.73,0 15.21,2.7 6.57,2.7 11.07,7.29 4.59,4.59 7.38,10.53 2.79,5.85 4.05,12.51 1.26,6.569999 1.26,13.139999 v 53.46 z m -70.29,0 V 65.768521 h 11.97 v 23.94 h 1.35 v 73.259999 z"
         id="path301" /><path
         d="m 968.04022,165.66852 q -13.59,0 -23.22,-6.75 -9.63,-6.84 -14.76,-18.45 -5.13,-11.61 -5.13,-26.19 0,-14.489999 5.04,-26.099999 5.13,-11.61 14.67,-18.36 9.54,-6.75 22.86,-6.75 13.68,0 23.04,6.66 9.36,6.66 14.12998,18.27 4.86,11.52 4.86,26.279999 0,14.49 -4.77,26.19 -4.76998,11.61 -14.03998,18.45 -9.27,6.75 -22.68,6.75 z m 1.35,-12.33 q 10.35,0 17.1,-5.04 6.75,-5.04 10.08,-13.86 3.33,-8.91 3.33,-20.16 0,-11.43 -3.33,-20.159999 -3.33,-8.82 -10.08,-13.77 -6.66,-4.95 -16.83,-4.95 -10.44,0 -17.28,5.13 -6.84,5.13 -10.17,13.95 -3.24,8.819999 -3.24,19.799999 0,11.07 3.33,19.98 3.42,8.82 10.17,13.95 6.75,5.13 16.92,5.13 z m 30.51,9.63 V 89.798521 h -1.44 v -56.43 h 13.31998 V 162.96852 Z"
         id="path303" /><path
         d="m 1038.7804,47.318521 v -14.85 h 13.23 v 14.85 z m 0,115.649999 V 65.768521 h 13.23 v 97.199999 z"
         id="path305" /><path
         d="m 1106.8203,165.66852 q -10.98,0 -18.45,-3.96 -7.38,-3.96 -11.07,-10.53 -3.69,-6.57 -3.69,-14.31 0,-7.92 3.15,-13.5 3.24,-5.67 8.73,-9.27 5.58,-3.6 12.87,-5.49 7.38,-1.8 16.29,-3.15 9,-1.44 17.55,-2.43 8.64,-1.08 15.12,-2.07 l -4.68,2.88 q 0.27,-14.399999 -5.58,-21.329999 -5.85,-6.93 -20.34,-6.93 -9.99,0 -16.92,4.5 -6.84,4.5 -9.63,14.22 l -12.87,-3.78 q 3.33,-13.05 13.41,-20.25 10.08,-7.2 26.19,-7.2 13.32,0 22.59,5.04 9.36,4.95 13.23,14.4 1.8,4.23 2.34,9.45 0.54,5.22 0.54,10.619999 v 60.39 h -11.79 v -24.39 l 3.42,1.44 q -4.95,12.51 -15.39,19.08 -10.44,6.57 -25.02,6.57 z m 1.53,-11.43 q 9.27,0 16.2,-3.33 6.93,-3.33 11.16,-9.09 4.23,-5.85 5.49,-13.14 1.08,-4.68 1.17,-10.26 0.09,-5.67 0.09,-8.46 l 5.04,2.61 q -6.75,0.9 -14.67,1.8 -7.83,0.9 -15.48,2.07 -7.56,1.17 -13.68,2.79 -4.14,1.17 -8.01,3.33 -3.87,2.07 -6.39,5.58 -2.43,3.51 -2.43,8.73 0,4.23 2.07,8.19 2.16,3.96 6.84,6.57 4.77,2.61 12.6,2.61 z"
         id="path307" /><path
         d="m 1215.2703,165.57852 q -17.1,0 -28.17,-7.38 -10.98,-7.38 -13.5,-20.52 l 13.5,-2.25 q 2.16,8.28 9.81,13.23 7.74,4.86 19.08,4.86 11.07,0 17.46,-4.59 6.39,-4.68 6.39,-12.69 0,-4.5 -2.07,-7.29 -1.98,-2.88 -8.19,-5.31 -6.21,-2.43 -18.54,-5.76 -13.23,-3.6 -20.7,-7.2 -7.47,-3.6 -10.62,-8.28 -3.15,-4.769999 -3.15,-11.609999 0,-8.28 4.68,-14.49 4.68,-6.3 12.96,-9.72 8.28,-3.51 19.26,-3.51 10.98,0 19.62,3.6 8.73,3.51 14.04,9.9 5.31,6.39 6.3,14.85 l -13.5,2.43 q -1.35,-8.55 -8.55,-13.5 -7.11,-5.04 -18.09,-5.22 -10.35,-0.27 -16.83,3.96 -6.48,4.14 -6.48,11.07 0,3.87 2.34,6.66 2.34,2.7 8.46,5.129999 6.21,2.43 17.64,5.31 13.41,3.42 21.06,7.2 7.65,3.78 10.89,8.91 3.24,5.13 3.24,12.69 0,13.77 -10.26,21.69 -10.17,7.83 -28.08,7.83 z"
         id="path309" /><path
         d="m 1354.5004,165.66852 q -13.59,0 -24.48,-4.5 -10.8,-4.59 -17.91,-12.96 -7.02,-8.37 -9.18,-19.89 l 13.5,-2.25 q 3.24,12.6 13.68,19.8 10.44,7.11 24.93,7.11 9.54,0 17.1,-2.97 7.56,-3.06 11.88,-8.64 4.32,-5.58 4.32,-13.23 0,-5.04 -1.8,-8.55 -1.8,-3.6 -4.77,-5.94 -2.97,-2.34 -6.48,-3.87 -3.51,-1.62 -6.84,-2.61 l -32.85,-9.809999 q -5.94,-1.71 -10.98,-4.32 -5.04,-2.7 -8.82,-6.39 -3.69,-3.78 -5.76,-8.82 -2.07,-5.04 -2.07,-11.52 0,-10.98 5.76,-18.99 5.76,-8.01 15.75,-12.33 9.99,-4.32 22.77,-4.23 12.96,0 23.13,4.59 10.26,4.59 16.92,13.14 6.66,8.46 8.82,20.07 l -13.86,2.52 q -1.35,-8.46 -6.21,-14.67 -4.86,-6.21 -12.42,-9.54 -7.47,-3.42 -16.47,-3.51 -8.73,0 -15.57,2.97 -6.75,2.88 -10.71,7.92 -3.96,5.04 -3.96,11.52 0,6.57 3.6,10.53 3.69,3.96 9,6.21 5.4,2.25 10.44,3.69 l 25.38,7.47 q 3.96,1.08 9.27,3.15 5.4,1.98 10.44,5.759999 5.13,3.69 8.46,9.72 3.33,6.03 3.33,15.3 0,9 -3.6,16.11 -3.51,7.11 -9.99,11.97 -6.39,4.86 -15.03,7.38 -8.55,2.61 -18.72,2.61 z"
         id="path311" /><path
         d="m 1473.3905,162.96852 q -8.19,1.71 -16.2,1.35 -7.92,-0.36 -14.22,-3.42 -6.21,-3.06 -9.45,-9.54 -2.61,-5.4 -2.88,-10.89 -0.18,-5.58 -0.18,-12.69 V 38.768521 h 13.14 v 88.469999 q 0,6.12 0.09,10.26 0.18,4.05 1.89,7.2 3.24,6.03 10.26,7.2 7.11,1.17 17.55,-0.54 z m -63.72,-85.859999 v -11.34 h 63.72 v 11.34 z"
         id="path313" /><path
         d="m 1529.7303,165.39852 q -8.73,0 -15.3,-2.7 -6.48,-2.7 -11.07,-7.29 -4.5,-4.59 -7.29,-10.44 -2.79,-5.94 -4.05,-12.51 -1.26,-6.66 -1.26,-13.23 V 65.768521 h 13.32 v 49.589999 q 0,8.01 1.53,14.85 1.53,6.84 4.86,11.97 3.42,5.04 8.73,7.83 5.4,2.79 13.05,2.79 7.02,0 12.33,-2.43 5.4,-2.43 9,-6.93 3.69,-4.59 5.58,-11.07 1.89,-6.57 1.89,-14.76 l 9.36,2.07 q 0,14.94 -5.22,25.11 -5.22,10.17 -14.4,15.39 -9.18,5.22 -21.06,5.22 z m 32.67,-2.43 v -23.94 h -1.35 V 65.768521 h 13.23 v 97.199999 z"
         id="path315" /><path
         d="m 1637.1904,165.66852 q -13.59,0 -23.22,-6.75 -9.63,-6.84 -14.76,-18.45 -5.13,-11.61 -5.13,-26.19 0,-14.489999 5.04,-26.099999 5.13,-11.61 14.67,-18.36 9.54,-6.75 22.86,-6.75 13.68,0 23.04,6.66 9.36,6.66 14.13,18.27 4.86,11.52 4.86,26.279999 0,14.49 -4.77,26.19 -4.77,11.61 -14.04,18.45 -9.27,6.75 -22.68,6.75 z m 1.35,-12.33 q 10.35,0 17.1,-5.04 6.75,-5.04 10.08,-13.86 3.33,-8.91 3.33,-20.16 0,-11.43 -3.33,-20.159999 -3.33,-8.82 -10.08,-13.77 -6.66,-4.95 -16.83,-4.95 -10.44,0 -17.28,5.13 -6.84,5.13 -10.17,13.95 -3.24,8.819999 -3.24,19.799999 0,11.07 3.33,19.98 3.42,8.82 10.17,13.95 6.75,5.13 16.92,5.13 z m 30.51,9.63 V 89.798521 h -1.44 v -56.43 h 13.32 V 162.96852 Z"
         id="path317" /><path
         d="m 1707.9305,47.318521 v -14.85 h 13.23 v 14.85 z m 0,115.649999 V 65.768521 h 13.23 v 97.199999 z"
         id="path319" /><path
         d="m 1788.7504,165.66852 q -14.49,0 -24.75,-6.57 -10.26,-6.57 -15.75,-18.18 -5.49,-11.61 -5.49,-26.64 0,-15.299999 5.58,-26.819999 5.58,-11.52 15.84,-17.91 10.35,-6.48 24.57,-6.48 14.58,0 24.84,6.57 10.35,6.48 15.75,18.09 5.49,11.52 5.49,26.549999 0,15.3 -5.49,26.91 -5.49,11.52 -15.84,18 -10.35,6.48 -24.75,6.48 z m 0,-12.69 q 16.2,0 24.12,-10.71 7.92,-10.8 7.92,-27.99 0,-17.639999 -8.01,-28.079999 -7.92,-10.44 -24.03,-10.44 -10.89,0 -18,4.95 -7.02,4.86 -10.53,13.59 -3.42,8.639999 -3.42,19.979999 0,17.55 8.1,28.17 8.1,10.53 23.85,10.53 z"
         id="path321" /></g><g
       id="g1353"
       transform="matrix(1.4967418,0,0,1.5199231,-2442.7307,-986.18132)"
       style="display:inline"><g
         id="g1329"
         transform="matrix(0.28222223,0,0,0.28222223,1619.3321,945.11083)"><path
           d="m 0,0 c -3.611,0 -6.636,-1.659 -9.09,-4.967 -2.441,-3.311 -3.668,-7.958 -3.668,-13.938 0,-5.993 1.166,-10.581 3.503,-13.778 2.333,-3.207 5.398,-4.804 9.2,-4.804 3.8,0 6.887,1.617 9.258,4.862 2.371,3.233 3.559,7.861 3.559,13.886 0,6.02 -1.227,10.654 -3.673,13.89 C 6.646,-1.617 3.616,0 0,0 m -0.055,-59.493 c -10.573,0 -19.195,3.46 -25.859,10.379 -6.655,6.925 -9.984,17.03 -9.984,30.314 0,13.292 3.367,23.356 10.101,30.209 6.736,6.844 15.431,10.269 26.082,10.269 10.649,0 19.251,-3.363 25.794,-10.109 6.555,-6.733 9.827,-16.94 9.827,-30.591 0,-13.661 -3.348,-23.822 -10.05,-30.49 -6.702,-6.654 -15.333,-9.981 -25.911,-9.981"
           transform="matrix(1.4138169,0,0,-1.4138169,570.06192,153.35415)"
           id="path1260" /><path
           d="m 0,0 v -33.768 c 0,-1.577 0.116,-2.571 0.342,-2.988 0.224,-0.415 0.903,-0.623 2.029,-0.623 4.144,0 7.283,1.548 9.429,4.634 2.151,3.083 3.215,8.216 3.215,15.405 0,7.192 -1.113,11.878 -3.325,14.055 C 9.467,-1.102 5.946,0 1.129,0 Z m -21.675,-52.392 v 67.735 c 0,1.883 0.468,3.369 1.413,4.471 0.939,1.085 2.161,1.636 3.671,1.636 H 2.263 c 11.965,0 21.053,-3.018 27.257,-9.04 6.215,-6.02 9.322,-15.499 9.322,-28.447 0,-27.7 -11.821,-41.547 -35.456,-41.547 h -19.302 c -3.836,0 -5.759,1.727 -5.759,5.192"
           transform="matrix(1.4138169,0,0,-1.4138169,665.56438,154.46003)"
           id="path1262" /><path
           d="m 0,0 c -3.612,0 -6.645,-1.659 -9.095,-4.967 -2.44,-3.311 -3.662,-7.958 -3.662,-13.938 0,-5.993 1.169,-10.581 3.499,-13.778 2.33,-3.207 5.398,-4.804 9.2,-4.804 3.801,0 6.89,1.617 9.258,4.862 2.372,3.233 3.56,7.861 3.56,13.886 0,6.02 -1.225,10.654 -3.671,13.89 C 6.642,-1.617 3.616,0 0,0 m -0.058,-59.493 c -10.577,0 -19.193,3.46 -25.851,10.379 -6.663,6.925 -9.993,17.03 -9.993,30.314 0,13.292 3.367,23.356 10.1,30.209 6.741,6.844 15.431,10.269 26.086,10.269 10.651,0 19.246,-3.363 25.797,-10.109 6.55,-6.733 9.822,-16.94 9.822,-30.591 0,-13.661 -3.349,-23.822 -10.05,-30.49 -6.699,-6.654 -15.338,-9.981 -25.911,-9.981"
           transform="matrix(1.4138169,0,0,-1.4138169,781.76333,153.35415)"
           id="path1264" /><path
           d="m 0,0 c 0,-1.496 -3.721,-2.255 -11.176,-2.255 -7.448,0 -11.18,0.759 -11.18,2.255 v 56.681 h -13.545 c -1.281,0 -2.185,1.727 -2.71,5.198 -0.226,1.652 -0.334,3.343 -0.334,5.077 0,1.724 0.108,3.422 0.334,5.077 0.525,3.462 1.429,5.202 2.71,5.202 h 49.112 c 1.279,0 2.179,-1.74 2.712,-5.202 0.221,-1.655 0.335,-3.353 0.335,-5.077 0,-1.734 -0.114,-3.425 -0.335,-5.077 C 15.39,58.408 14.49,56.681 13.211,56.681 H 0 Z"
           transform="matrix(1.4138169,0,0,-1.4138169,892.01415,233.32981)"
           id="path1266" /><path
           d="m 0,0 c -6.078,0.094 -13.034,-1.173 -13.034,-1.173 v -11.863 h 6.995 l -0.078,-5.288 c 0,-1.959 -1.942,-2.943 -5.815,-2.943 -3.878,0 -7.303,1.642 -10.274,4.917 -2.978,3.279 -4.459,8.072 -4.459,14.388 0,6.329 1.447,10.995 4.345,14.006 2.892,3.008 6.683,4.517 11.346,4.517 1.959,0 3.987,-0.316 6.096,-0.961 2.11,-0.639 3.519,-1.238 4.238,-1.799 0.713,-0.577 1.391,-0.85 2.032,-0.85 0.638,0 1.671,0.746 3.1,2.255 1.431,1.505 2.713,3.786 3.844,6.827 1.126,3.057 1.69,5.4 1.69,7.062 0,1.649 -0.036,2.786 -0.109,3.386 -1.581,1.73 -4.499,3.102 -8.755,4.122 -4.248,1.017 -9.011,1.522 -14.28,1.522 -11.594,0 -20.66,-3.65 -27.207,-10.95 -6.552,-7.303 -9.822,-16.783 -9.822,-28.452 0,-13.701 3.347,-24.087 10.041,-31.162 6.706,-7.074 15.51,-10.607 26.425,-10.607 5.87,0 11.08,0.505 15.632,1.522 4.557,1.013 7.586,2.053 9.093,3.105 l 0.452,35.33 C 11.496,-1.036 6.078,-0.104 0,0"
           transform="matrix(1.4138169,0,0,-1.4138169,491.08187,176.60776)"
           id="path1268" /><g
           transform="matrix(1.25,0,0,-1.25,-94.249997,597.49874)"
           id="g1290"><path
             d="m 0,0 c -0.624,-1.28 -1.771,-2.454 -3.449,-3.516 -1.676,-1.069 -3.805,-1.6 -6.391,-1.6 -3.412,0 -6.156,1.075 -8.24,3.249 -2.076,2.157 -3.116,5.266 -3.116,9.323 v 10.116 c 0,3.969 0.98,7.013 2.946,9.138 1.962,2.108 4.59,3.177 7.872,3.177 3.208,0 5.695,-0.844 7.455,-2.513 1.755,-1.675 2.677,-4.015 2.757,-7.003 L -0.21,20.238 h -2.619 c -0.094,2.29 -0.759,4.057 -2.01,5.305 -1.244,1.238 -3.095,1.864 -5.539,1.864 -2.473,0 -4.432,-0.837 -5.866,-2.516 -1.43,-1.675 -2.143,-4.103 -2.143,-7.293 V 7.424 c 0,-3.308 0.771,-5.83 2.311,-7.567 1.54,-1.724 3.616,-2.588 6.236,-2.588 1.913,0 3.451,0.339 4.602,1.033 1.155,0.684 1.956,1.519 2.409,2.51 v 8.861 h -7.06 v 2.463 H 0 Z"
             transform="matrix(1.1310535,0,0,1.1310535,441.34721,235.75121)"
             id="path1270" /><path
             d="m 0,0 c 1.553,0 2.936,0.44 4.144,1.336 1.21,0.9 2.058,2.037 2.561,3.422 v 5.468 H 2.213 c -1.91,0 -3.44,-0.541 -4.585,-1.623 C -3.52,7.528 -4.088,6.185 -4.088,4.588 -4.088,3.239 -3.733,2.131 -3.014,1.277 -2.296,0.42 -1.292,0 0,0 M 7.124,-2.04 C 6.984,-1.164 6.875,-0.453 6.806,0.104 6.739,0.671 6.705,1.235 6.705,1.808 5.938,0.554 4.948,-0.486 3.725,-1.301 2.504,-2.122 1.146,-2.529 -0.35,-2.529 c -2.092,0 -3.701,0.648 -4.84,1.946 -1.132,1.303 -1.704,3.059 -1.704,5.276 0,2.343 0.823,4.223 2.473,5.618 1.649,1.395 3.89,2.092 6.709,2.092 h 4.417 v 3.106 c 0,1.786 -0.456,3.193 -1.351,4.21 -0.914,1.004 -2.17,1.512 -3.791,1.512 -1.508,0 -2.752,-0.479 -3.728,-1.45 -0.973,-0.965 -1.456,-2.144 -1.456,-3.549 l -2.623,0.023 -0.046,0.137 c -0.074,1.906 0.647,3.591 2.168,5.084 1.515,1.489 3.459,2.229 5.825,2.229 2.338,0 4.22,-0.711 5.657,-2.128 1.429,-1.431 2.146,-3.471 2.146,-6.124 V 3.057 c 0,-0.903 0.042,-1.78 0.121,-2.617 0.081,-0.848 0.212,-1.665 0.417,-2.48 z"
             transform="matrix(1.1310535,0,0,1.1310535,456.01527,232.82495)"
             id="path1272" /><path
             d="m 0,0 0.24,-3.923 c 0.664,1.404 1.554,2.486 2.657,3.255 1.107,0.759 2.41,1.138 3.906,1.138 1.527,0 2.814,-0.444 3.852,-1.343 1.039,-0.896 1.805,-2.252 2.292,-4.074 0.623,1.682 1.505,3.011 2.65,3.973 1.145,0.964 2.534,1.444 4.143,1.444 2.217,0 3.937,-0.897 5.156,-2.692 1.224,-1.799 1.834,-4.559 1.834,-8.288 v -14.765 h -2.823 v 14.814 c 0,3.1 -0.429,5.283 -1.263,6.538 -0.839,1.257 -2.042,1.89 -3.598,1.89 -1.637,0 -2.915,-0.691 -3.834,-2.096 -0.914,-1.405 -1.478,-3.161 -1.683,-5.282 v -0.655 -15.209 H 10.72 v 14.798 c 0,3.027 -0.424,5.194 -1.292,6.488 -0.864,1.294 -2.066,1.936 -3.609,1.936 -1.475,0 -2.668,-0.45 -3.562,-1.342 -0.9,-0.897 -1.54,-2.125 -1.928,-3.683 V -25.275 H -2.477 V 0 Z"
             transform="matrix(1.1310535,0,0,1.1310535,476.7303,259.10521)"
             id="path1274" /><path
             d="m 0,0 c -1.758,0 -3.202,-0.802 -4.334,-2.402 -1.133,-1.606 -1.718,-3.585 -1.765,-5.944 h 11.66 v 1.082 c 0,2.086 -0.489,3.823 -1.469,5.201 C 3.106,-0.684 1.745,0 0,0 m 0.397,-23.76 c -2.725,0 -4.954,1.026 -6.685,3.073 -1.726,2.043 -2.591,4.657 -2.591,7.841 v 4.197 c 0,3.19 0.867,5.85 2.602,7.965 1.739,2.105 3.828,3.158 6.277,3.158 2.648,0 4.699,-0.939 6.164,-2.823 1.468,-1.887 2.201,-4.422 2.201,-7.603 v -2.773 H -6.099 v -2.102 c 0,-2.447 0.586,-4.484 1.752,-6.11 1.168,-1.63 2.755,-2.438 4.744,-2.438 1.382,0 2.585,0.244 3.588,0.724 1.003,0.491 1.863,1.179 2.578,2.082 l 1.149,-1.988 C 6.949,-21.525 5.96,-22.307 4.753,-22.887 3.549,-23.464 2.094,-23.76 0.397,-23.76"
             transform="matrix(1.1310535,0,0,1.1310535,522.82277,256.83868)"
             id="path1276" /><path
             d="M 0,0 C -1.763,0 -3.21,-0.802 -4.341,-2.402 -5.467,-4.008 -6.053,-5.987 -6.104,-8.346 H 5.559 v 1.082 c 0,2.086 -0.488,3.823 -1.474,5.201 C 3.104,-0.684 1.744,0 0,0 m 0.394,-23.76 c -2.726,0 -4.951,1.026 -6.679,3.073 -1.733,2.043 -2.6,4.657 -2.6,7.841 v 4.197 c 0,3.19 0.871,5.85 2.602,7.965 1.744,2.105 3.834,3.158 6.283,3.158 2.643,0 4.703,-0.939 6.164,-2.823 1.463,-1.887 2.197,-4.422 2.197,-7.603 v -2.773 H -6.104 v -2.102 c 0,-2.447 0.587,-4.484 1.76,-6.11 1.162,-1.63 2.742,-2.438 4.738,-2.438 1.387,0 2.585,0.244 3.585,0.724 1.007,0.491 1.866,1.179 2.589,2.082 l 1.141,-1.988 c -0.764,-0.968 -1.75,-1.75 -2.959,-2.33 -1.204,-0.577 -2.658,-0.873 -4.356,-0.873"
             transform="matrix(1.1310535,0,0,1.1310535,558.0805,256.83868)"
             id="path1278" /><path
             d="m 0,0 0.23,-4.178 c 0.674,1.483 1.564,2.634 2.682,3.435 1.108,0.805 2.413,1.213 3.914,1.213 2.258,0 3.988,-0.835 5.189,-2.513 1.214,-1.675 1.815,-4.279 1.815,-7.812 v -15.42 h -2.825 v 15.394 c 0,2.888 -0.423,4.905 -1.264,6.075 -0.836,1.17 -2.065,1.753 -3.665,1.753 -1.435,0 -2.638,-0.466 -3.603,-1.414 C 1.504,-4.406 0.782,-5.657 0.301,-7.234 V -25.275 H -2.504 V 0 Z"
             transform="matrix(1.1310535,0,0,1.1310535,575.91679,259.10521)"
             id="path1280" /><path
             d="m 0,0 c 0,-2.565 0.486,-4.605 1.472,-6.123 0.974,-1.532 2.457,-2.288 4.436,-2.288 1.356,0 2.498,0.361 3.435,1.101 0.934,0.74 1.672,1.77 2.218,3.077 v 12.52 c -0.525,1.346 -1.246,2.434 -2.157,3.272 -0.91,0.824 -2.062,1.238 -3.448,1.238 -1.975,0 -3.468,-0.86 -4.46,-2.587 C 0.497,8.48 0,6.224 0,3.454 Z m -2.833,3.454 c 0,3.582 0.723,6.459 2.177,8.627 1.442,2.157 3.448,3.239 6.004,3.239 1.419,0 2.664,-0.346 3.728,-1.04 1.066,-0.681 1.947,-1.678 2.654,-2.946 l 0.274,3.516 h 2.381 v -25.298 c 0,-3.239 -0.751,-5.749 -2.26,-7.525 -1.511,-1.769 -3.657,-2.665 -6.428,-2.665 -0.996,0 -2.067,0.156 -3.212,0.459 -1.147,0.303 -2.162,0.701 -3.052,1.2 l 0.776,2.463 c 0.759,-0.492 1.608,-0.873 2.548,-1.141 0.932,-0.277 1.895,-0.41 2.894,-0.41 2.009,0 3.498,0.645 4.46,1.932 0.966,1.304 1.45,3.19 1.45,5.687 v 3.057 c -0.717,-1.138 -1.597,-2.011 -2.64,-2.614 -1.039,-0.606 -2.253,-0.909 -3.622,-0.909 -2.539,0 -4.53,0.994 -5.968,2.982 C -2.11,-5.948 -2.833,-3.301 -2.833,0 Z"
             transform="matrix(1.1310535,0,0,1.1310535,600.8685,242.30884)"
             id="path1282" /><path
             d="m 627.82321,230.5176 h -3.20089 v 28.58738 h 3.20089 z m 0,36.72644 h -3.20089 v 4.50385 h 3.20089 z"
             id="path1284" /><path
             d="m 0,0 0.23,-4.178 c 0.676,1.483 1.562,2.634 2.678,3.435 1.115,0.805 2.422,1.213 3.916,1.213 2.258,0 3.995,-0.835 5.199,-2.513 1.211,-1.675 1.807,-4.279 1.807,-7.812 v -15.42 h -2.825 v 15.394 c 0,2.888 -0.422,4.905 -1.261,6.075 -0.843,1.17 -2.063,1.753 -3.668,1.753 -1.434,0 -2.635,-0.466 -3.599,-1.414 C 1.51,-4.406 0.785,-5.657 0.306,-7.234 V -25.275 H -2.503 V 0 Z"
             transform="matrix(1.1310535,0,0,1.1310535,638.15379,259.10521)"
             id="path1286" /><path
             d="M 0,0 C -1.763,0 -3.208,-0.802 -4.334,-2.402 -5.463,-4.008 -6.052,-5.987 -6.102,-8.346 H 5.56 v 1.082 c 0,2.086 -0.486,3.823 -1.47,5.201 C 3.109,-0.684 1.747,0 0,0 m 0.401,-23.76 c -2.733,0 -4.958,1.026 -6.681,3.073 -1.73,2.043 -2.595,4.657 -2.595,7.841 v 4.197 c 0,3.19 0.865,5.85 2.6,7.965 1.739,2.105 3.831,3.158 6.275,3.158 2.646,0 4.706,-0.939 6.172,-2.823 1.462,-1.887 2.195,-4.422 2.195,-7.603 v -2.773 H -6.102 v -2.102 c 0,-2.447 0.59,-4.484 1.757,-6.11 1.166,-1.63 2.748,-2.438 4.746,-2.438 1.382,0 2.579,0.244 3.578,0.724 1.012,0.491 1.869,1.179 2.591,2.082 l 1.147,-1.988 c -0.769,-0.968 -1.755,-1.75 -2.962,-2.33 -1.203,-0.577 -2.658,-0.873 -4.354,-0.873"
             transform="matrix(1.1310535,0,0,1.1310535,669.70883,256.83868)"
             id="path1288" /></g><path
           d="m 181.9082,48.951172 c -15.35819,3.414273 -30.55119,8.168521 -44.79492,15.33789 0.32574,12.577316 1.13879,24.628133 2.78711,36.869138 -5.5316,3.54397 -11.34506,6.58567 -16.51172,10.73438 -5.2496,4.03861 -10.61179,7.90171 -15.36523,12.625 C 98.527111,118.23646 88.477465,112.33344 78.123047,107.12305 66.96181,119.13483 56.525128,132.09977 48,146.60742 c 6.699845,10.51682 13.885852,21.08679 20.541016,29.33008 v 71.6543 9.10156 8.2832 c 0.162871,10e-4 0.326917,0.006 0.488281,0.0215 l 54.585933,5.26367 c 2.85931,0.27598 5.09977,2.57801 5.29883,5.44336 l 1.6836,24.0957 47.61523,3.39844 3.2793,-22.24024 c 0.42528,-2.88343 2.8998,-5.02148 5.8164,-5.02148 h 57.58985 c 2.9151,0 5.38918,2.13805 5.81445,5.02148 l 3.2793,22.24024 47.61719,-3.39844 1.68164,-24.0957 c 0.20057,-2.86535 2.43953,-5.16588 5.29882,-5.44336 l 54.56446,-5.26367 c 0.16136,-0.015 0.32348,-0.02 0.48632,-0.0215 v -7.10547 l 0.0234,-0.006 V 175.9375 c 7.68652,-9.6765 14.96452,-20.34983 20.54102,-29.33008 -8.52211,-14.50765 -18.96376,-27.47259 -30.125,-39.48437 -10.35139,5.21039 -20.40601,11.11341 -29.90235,17.39453 -4.75192,-4.72329 -10.10418,-8.58639 -15.36132,-12.625 -5.16515,-4.14871 -10.98676,-7.19041 -16.50782,-10.73438 1.64381,-12.241005 2.45791,-24.291822 2.78516,-36.869138 -14.24524,-7.169369 -29.437,-11.923617 -44.80273,-15.33789 -6.13484,10.310684 -11.74472,21.477157 -16.63086,32.392578 -5.79402,-0.968181 -11.61467,-1.327114 -17.44336,-1.396484 v -0.0098 c -0.0408,0 -0.0786,0.0098 -0.11328,0.0098 -0.0362,0 -0.0752,-0.0098 -0.11133,-0.0098 v 0.0098 c -5.83926,0.06937 -11.65565,0.428303 -17.45117,1.396484 C 193.65788,70.428329 188.05209,59.261856 181.9082,48.951172 Z M 138.72266,179.20312 c 18.16924,0 32.89648,14.7157 32.89648,32.87891 0,18.17528 -14.72724,32.89844 -32.89648,32.89844 -18.1602,0 -32.89063,-14.72316 -32.89063,-32.89844 0,-18.16321 14.73043,-32.87891 32.89063,-32.87891 z m 154.76367,0 c 18.15868,0 32.88672,14.7157 32.88672,32.87891 0,18.17528 -14.72804,32.89844 -32.88672,32.89844 -18.17227,0 -32.89844,-14.72316 -32.89844,-32.89844 0,-18.16321 14.72617,-32.8789 32.89844,-32.87891 z m -77.38672,19.24024 c 5.8483,0 10.59961,4.31463 10.59961,9.62305 v 30.2832 c 0,5.31294 -4.75131,9.62305 -10.59961,9.62305 -5.8483,0 -10.58789,-4.31011 -10.58789,-9.62305 v -30.2832 c 0,-5.30842 4.73959,-9.62305 10.58789,-9.62305 z"
           stroke-width="1.50807"
           transform="scale(0.93749999)"
           id="path1292" /><g
           stroke-width="1.41382"
           id="g1300"><path
             d="m 295.00412,263.89328 -1.58489,22.71014 c -0.19086,2.73715 -2.36814,4.91584 -5.10529,5.11236 l -54.50971,3.88941 c -0.1329,0.01 -0.2658,0.0141 -0.39728,0.0141 -2.70888,0 -5.04592,-1.98783 -5.44603,-4.70801 l -3.12595,-21.19877 h -44.47726 l -3.12595,21.19877 c -0.41991,2.85308 -2.97043,4.90453 -5.84331,4.69387 l -54.50971,-3.88941 c -2.73715,-0.19652 -4.91442,-2.37521 -5.10529,-5.11236 l -1.58489,-22.71014 -46.015498,-4.43656 c 0.02121,4.94553 0.08483,10.36328 0.08483,11.44202 0,48.59854 61.649488,71.95763 138.244428,72.22625 h 0.0933 0.0947 c 76.59494,-0.26862 138.22322,-23.62771 138.22322,-72.22625 0,-1.09853 0.0664,-6.49366 0.0891,-11.44202 z"
             id="path1294" /><path
             d="m 153.47185,200.6558 c 0,11.30205 -9.16012,20.46217 -20.47065,20.46217 -11.30488,0 -20.47066,-9.16012 -20.47066,-20.46217 0,-11.30205 9.16578,-20.47065 20.47066,-20.47065 11.31053,0 20.47065,9.1686 20.47065,20.47065"
             id="path1296" /><path
             d="m 251.72267,200.6558 c 0,11.30205 9.15729,20.46217 20.45934,20.46217 11.31337,0 20.47066,-9.16012 20.47066,-20.46217 0,-11.30205 -9.15729,-20.47065 -20.47066,-20.47065 -11.30205,0 -20.45934,9.1686 -20.45934,20.47065"
             id="path1298" /></g></g></g></g></svg>
